<svg id="圖層_1" data-name="圖層 1" xmlns="http://www.w3.org/2000/svg" viewBox="0 0 23 18.07"><defs><style>.cls-1{fill:#5918df;}</style></defs><title>icon_工作區域 1</title><path class="cls-1" d="M2.21,5.57,4.84,7.4,8.2,9.74l.55.39.69.49.67.42a3.44,3.44,0,0,0,.74.34,1.94,1.94,0,0,0,.64.12h0a1.94,1.94,0,0,0,.64-.12,3.44,3.44,0,0,0,.74-.34l.67-.42.69-.49.55-.39,6-4.17A6.16,6.16,0,0,0,22.37,4,3.37,3.37,0,0,0,23,2.05,2,2,0,0,0,22.39.6,2,2,0,0,0,21,0H2.05A1.82,1.82,0,0,0,.53.67,2.61,2.61,0,0,0,0,2.34,3,3,0,0,0,.71,4.09,6.34,6.34,0,0,0,2.21,5.57Z"/><path class="cls-1" d="M21.72,6.94q-4.21,2.85-6.4,4.43c-.48.36-.88.64-1.18.84a7.58,7.58,0,0,1-1.22.62,3.64,3.64,0,0,1-1.41.31h0a3.64,3.64,0,0,1-1.41-.31,7.58,7.58,0,0,1-1.22-.62c-.3-.2-.7-.48-1.18-.84C6.52,10.52,4.39,9.05,1.3,6.94A6.63,6.63,0,0,1,0,5.83V16a2,2,0,0,0,.6,1.45,2,2,0,0,0,1.45.6H21A2,2,0,0,0,23,16V5.83A7.24,7.24,0,0,1,21.72,6.94Z"/></svg>