<svg viewBox="0 0 23 18.07" xmlns="http://www.w3.org/2000/svg"><g fill="#5918df"><path d="m2.21 5.57 2.63 1.83 3.36 2.34.55.39.69.49.67.42a3.44 3.44 0 0 0 .74.34 1.94 1.94 0 0 0 .64.12 1.94 1.94 0 0 0 .64-.12 3.44 3.44 0 0 0 .74-.34l.67-.42.69-.49.55-.39 6-4.17a6.16 6.16 0 0 0 1.59-1.57 3.37 3.37 0 0 0 .63-1.95 2 2 0 0 0 -.61-1.45 2 2 0 0 0 -1.39-.6h-18.95a1.82 1.82 0 0 0 -1.52.67 2.61 2.61 0 0 0 -.53 1.67 3 3 0 0 0 .71 1.75 6.34 6.34 0 0 0 1.5 1.48z"/><path d="m21.72 6.94q-4.21 2.85-6.4 4.43c-.48.36-.88.64-1.18.84a7.58 7.58 0 0 1 -1.22.62 3.64 3.64 0 0 1 -1.41.31 3.64 3.64 0 0 1 -1.41-.31 7.58 7.58 0 0 1 -1.22-.62c-.3-.2-.7-.48-1.18-.84-1.18-.85-3.31-2.32-6.4-4.43a6.63 6.63 0 0 1 -1.3-1.11v10.17a2 2 0 0 0 .6 1.45 2 2 0 0 0 1.45.6h18.95a2 2 0 0 0 2-2.05v-10.17a7.24 7.24 0 0 1 -1.28 1.11z"/></g></svg>